# xmcd CD database file
#
# Track frame offsets:
#	150
#	14617
#	28897
#	40377
#	53037
#	63797
#	78857
#	93897
#	109787
#	128410
#	145835
#	158552
#	175957
#	188397
#	199442
#	211032
#	224070
#	237752
#	254312
#
# Disc length: 3650 seconds
#
# Revision: 1
# Processed by: cddbd v1.4PL0 Copyright (c) Steve Scherf et al.
# Submitted via: CDex 1.40Beta9
#
DISCID=fe0e4013
DTITLE=Various Artist - The Greatest Country Classics CD2
DYEAR=1900
DGENRE=Country
TTITLE0=Highwaymen - The Devil's Right Hand
TTITLE1=Ricky Skaggs - Highway 40 Blues
TTITLE2=Willie Nelson - On The Road Again (Live)
TTITLE3=Jerry Reed - East Bound And Down
TTITLE4=George Jones and Ricky Van Shelton - It Hurts As Much In Texas (As It Did In Tennessee)
TTITLE5=Don Williams - I Recall A Gypsy Woman
TTITLE6=Tanya Tucker - Delta Dawn
TTITLE7=Billie Jo Spears - Blanket On The Ground
TTITLE8=Juice Newton - Angel Of The Morning
TTITLE9=Bobby Bare - Sylvia's Mother
TTITLE10=Patsy Cline - I Fall To Pieces
TTITLE11=Don Schlitz - The Gambler
TTITLE12=Jim Reeves - I Love You Because
TTITLE13=Roger Miller - Kong Of The Road
TTITLE14=Chris LeDoux - Whatcha Gonna Do With A Cowboy
TTITLE15=Suzy Bogguss - Outbound Plane
TTITLE16=Kix Brooks - Baby When Your Heart Breaks Down
TTITLE17=Eddie Rabbitt - Step By Step
TTITLE18=Trisha Yearwood - Walk Away Joe
EXTD=ID3G: 2
EXTT0=
EXTT1=
EXTT2=
EXTT3=
EXTT4=
EXTT5=
EXTT6=
EXTT7=
EXTT8=
EXTT9=
EXTT10=
EXTT11=
EXTT12=
EXTT13=
EXTT14=
EXTT15=
EXTT16=
EXTT17=
EXTT18=
PLAYORDER=
